<svg width="74" height="59" viewBox="0 0 74 59" fill="none" xmlns="http://www.w3.org/2000/svg">
<path d="M34.8262 35.4466C33.2651 38.7976 30.7241 41.5961 27.5389 43.4723C24.3536 45.3486 20.6741 46.2143 16.9864 45.955C13.2988 45.6958 9.77653 44.3238 6.88512 42.0204C3.99371 39.717 1.8692 36.5905 0.792289 33.0541C-0.284618 29.5176 -0.263236 25.7377 0.853611 22.2137C1.97046 18.6897 4.13021 15.5874 7.04749 13.3168C9.96478 11.0463 13.5023 9.71424 17.1927 9.49673C20.883 9.27923 24.5525 10.1865 27.7163 12.0987L24.5303 17.3702C22.4333 16.1028 20.0011 15.5014 17.5551 15.6456C15.109 15.7898 12.7643 16.6726 10.8307 18.1776C8.89709 19.6826 7.46557 21.7388 6.72531 24.0746C5.98505 26.4103 5.97088 28.9157 6.68467 31.2597C7.39846 33.6037 8.80661 35.676 10.7231 37.2027C12.6396 38.7295 14.9741 39.6388 17.4184 39.8107C19.8626 39.9825 22.3014 39.4087 24.4127 38.1651C26.5239 36.9215 28.2081 35.0666 29.2428 32.8455L34.8262 35.4466Z" fill="white"/>
<path d="M29.1716 26.3891C29.0193 22.6041 30.0476 18.8652 32.1139 15.6903C34.1803 12.5154 37.1826 10.0613 40.7052 8.66799C44.2277 7.27463 48.0964 7.01085 51.7755 7.91317C55.4546 8.81549 58.7622 10.8393 61.2404 13.7043C63.7186 16.5694 65.2448 20.1341 65.6077 23.9048C65.9706 27.6755 65.1523 31.4658 63.266 34.7509C61.3798 38.0361 58.5188 40.6535 55.0794 42.241C51.6399 43.8284 47.7919 44.3073 44.0682 43.6114L45.1999 37.5567C47.668 38.018 50.2184 37.7005 52.4982 36.6484C54.7779 35.5962 56.6742 33.8613 57.9244 31.6839C59.1747 29.5064 59.7171 26.9942 59.4765 24.4949C59.236 21.9956 58.2244 19.6329 56.5818 17.7339C54.9392 15.8349 52.7469 14.4935 50.3083 13.8954C47.8698 13.2973 45.3056 13.4722 42.9708 14.3957C40.6359 15.3193 38.646 16.9458 37.2764 19.0502C35.9067 21.1546 35.2252 23.6327 35.3262 26.1415L29.1716 26.3891Z" fill="white"/>
<path d="M35.3262 26.1415L29.1716 26.3891L29.1716 51.9629L35.3262 54.8971L35.3262 26.1415Z" fill="white"/>
</svg>
