<svg width="74" height="59" viewBox="0 0 102 83" fill="none" xmlns="http://www.w3.org/2000/svg">
<g id="Group 17">
<path id="Ellipse 106" d="M49.1234 49.4319C46.9394 54.12 43.3844 58.0352 38.9282 60.6601C34.4719 63.2851 29.3241 64.4962 24.1649 64.1335C19.0058 63.7708 14.0781 61.8514 10.0329 58.6288C5.98772 55.4063 3.01546 51.0322 1.50883 46.0846C0.00220075 41.1371 0.032115 35.8488 1.59462 30.9186C3.15712 25.9884 6.17868 21.6483 10.2601 18.4717C14.3414 15.2951 19.2906 13.4315 24.4535 13.1272C29.6164 12.8229 35.2512 14.5132 39.6774 17.1884L33.9495 23.7347C31.0157 21.9615 28.3826 21.528 24.9605 21.7296C21.5384 21.9313 18.2581 23.1665 15.5529 25.272C12.8477 27.3775 10.845 30.2542 9.80932 33.522C8.77367 36.7899 8.75384 40.295 9.75246 43.5743C10.7511 46.8536 12.7211 49.7528 15.4023 51.8888C18.0835 54.0247 21.3497 55.297 24.7693 55.5373C28.1888 55.7777 31.6008 54.975 34.5545 53.2351C37.5082 51.4953 39.8645 48.9003 41.3121 45.7929L49.1234 49.4319Z" fill="url(#paint0_linear_330_533)"/>
<g id="Ellipse 107">
<path d="M40.5589 36.9191C40.3458 31.6236 41.7843 26.3929 44.6752 21.951C47.5661 17.5092 51.7664 14.0759 56.6947 12.1266C61.6229 10.1772 67.0352 9.8082 72.1824 11.0706C77.3296 12.3329 81.9571 15.1643 85.4242 19.1726C88.8912 23.1809 91.0264 28.168 91.5342 33.4434C92.0419 38.7187 90.897 44.0215 88.2581 48.6175C85.6191 53.2135 81.6166 56.8754 76.8046 59.0963C71.9927 61.3172 64.363 61.5256 59.1535 60.5519L62.9829 52.5428C66.4358 53.1881 70.004 52.7441 73.1935 51.272C76.3829 49.8 79.0358 47.3728 80.785 44.3265C82.5341 41.2802 83.2929 37.7655 82.9564 34.2689C82.6199 30.7723 81.2047 27.4668 78.9066 24.8101C76.6086 22.1533 73.5415 20.2766 70.1298 19.4399C66.7182 18.6032 63.1308 18.8478 59.8643 20.1399C56.5978 21.4319 53.8138 23.7075 51.8977 26.6516C49.9815 29.5958 49.0281 33.0628 49.1693 36.5727L40.5589 36.9191Z" fill="url(#paint1_linear_330_533)"/>
<path d="M49.1693 36.5727L40.5589 36.9191L40.5589 72.6976L49.1693 76.8025L49.1693 36.5727Z" fill="url(#paint2_linear_330_533)"/>
</g>
</g>
<defs>
<linearGradient id="paint0_linear_330_533" x1="24.7619" y1="13.0919" x2="24.7619" y2="64.1964" gradientUnits="userSpaceOnUse">
<stop stop-color="#17E8C7"/>
<stop offset="1" stop-color="#6A27FF"/>
</linearGradient>
<linearGradient id="paint1_linear_330_533" x1="75.1287" y1="61.3124" x2="43.4882" y2="21.1692" gradientUnits="userSpaceOnUse">
<stop stop-color="#17E8C7"/>
<stop offset="1" stop-color="#6A27FF"/>
</linearGradient>
<linearGradient id="paint2_linear_330_533" x1="75.1287" y1="61.3124" x2="43.4882" y2="21.1692" gradientUnits="userSpaceOnUse">
<stop stop-color="#17E8C7"/>
<stop offset="1" stop-color="#6A27FF"/>
</linearGradient>
</defs>
</svg>
