<svg width="80" height="80" viewBox="0 0 80 80" fill="none" xmlns="http://www.w3.org/2000/svg">
<path fill-rule="evenodd" clip-rule="evenodd" d="M20.8333 23.3334C20.8333 12.7479 29.4145 4.16669 40 4.16669C50.5855 4.16669 59.1667 12.7479 59.1667 23.3334V27.0457C59.1667 27.2684 59.1376 27.4843 59.0829 27.6898C63.8699 29.4488 67.6011 33.3106 69.1843 38.1831C70 40.6936 70 43.7957 70 50C70 56.2043 70 59.3064 69.1843 61.817C67.5356 66.8909 63.5576 70.869 58.4836 72.5176C55.9731 73.3334 52.8709 73.3334 46.6667 73.3334H33.3333C27.129 73.3334 24.0269 73.3334 21.5164 72.5176C16.4424 70.869 12.4644 66.8909 10.8157 61.817C10 59.3064 10 56.2043 10 50C10 43.7957 10 40.6936 10.8157 38.1831C12.3989 33.3106 16.1301 29.4488 20.9171 27.6898C20.8624 27.4843 20.8333 27.2684 20.8333 27.0457V23.3334ZM25.8333 26.7805C27.7324 26.6667 30.1157 26.6667 33.3333 26.6667H46.6667C49.8843 26.6667 52.2676 26.6667 54.1667 26.7805V23.3334C54.1667 15.5093 47.824 9.16669 40 9.16669C32.176 9.16669 25.8333 15.5093 25.8333 23.3334V26.7805ZM40 40.8334C41.3807 40.8334 42.5 41.9526 42.5 43.3334V56.6667C42.5 58.0474 41.3807 59.1667 40 59.1667C38.6193 59.1667 37.5 58.0474 37.5 56.6667V43.3334C37.5 41.9526 38.6193 40.8334 40 40.8334Z" fill="url(#paint0_linear_330_422)"/>
<defs>
<linearGradient id="paint0_linear_330_422" x1="10" y1="73.3334" x2="79.5049" y2="15.6119" gradientUnits="userSpaceOnUse">
<stop stop-color="#27E5FF"/>
<stop offset="1" stop-color="#6A27FF"/>
</linearGradient>
</defs>
</svg>
