<svg width="80" height="80" viewBox="0 0 80 80" fill="none" xmlns="http://www.w3.org/2000/svg">
<path d="M17.5 19.1666C17.5 10.4221 24.5888 3.33331 33.3333 3.33331C42.0778 3.33331 49.1667 10.4221 49.1667 19.1666C49.1667 27.9112 42.0778 35 33.3333 35C24.5888 35 17.5 27.9112 17.5 19.1666Z" fill="url(#paint0_linear_330_421)"/>
<path d="M7.5 55.8333C7.5 47.0888 14.5888 40 23.3333 40H43.3333C50.124 40 55.9162 44.2749 58.1655 50.2803L57.1359 51.4304C54.821 54.016 53.5208 55.4451 52.5 56.3158C51.4792 55.4451 50.179 54.016 47.8641 51.4304L44.9669 48.1943C42.511 45.4512 38.2963 45.2184 35.5531 47.6743C32.81 50.1302 32.5772 54.3449 35.0331 57.088L38.1889 60.613C40.1884 62.8472 42.1327 65.0198 43.9803 66.5727C45.7122 68.0284 47.9069 69.4221 50.6863 69.8594C48.4891 71.0136 45.9875 71.6666 43.3333 71.6666H23.3333C14.5888 71.6666 7.5 64.5778 7.5 55.8333Z" fill="url(#paint1_linear_330_421)"/>
<path d="M75.1959 45.0009C76.1169 43.9722 76.0296 42.3917 75.0009 41.4707C73.9722 40.5498 72.3917 40.6371 71.4707 41.6657L60.2402 54.2097C57.9645 56.7515 56.432 58.4542 55.1217 59.5555C53.8735 60.6046 53.1404 60.8333 52.5 60.8333C51.8596 60.8333 51.1264 60.6046 49.8783 59.5555C48.568 58.4542 47.0355 56.7514 44.7598 54.2097L41.8626 50.9736C40.9416 49.9449 39.3611 49.8576 38.3324 50.7786C37.3038 51.6996 37.2164 53.2801 38.1374 54.3088L41.1584 57.6831C43.2779 60.0506 45.0458 62.0253 46.6612 63.3831C48.37 64.8193 50.2131 65.8333 52.5 65.8333C54.7869 65.8333 56.63 64.8193 58.3388 63.3831C59.9542 62.0254 61.7221 60.0506 63.8416 57.6831L75.1959 45.0009Z" fill="url(#paint2_linear_330_421)"/>
<defs>
<linearGradient id="paint0_linear_330_421" x1="7.5" y1="71.6666" x2="77.2894" y2="4.85421" gradientUnits="userSpaceOnUse">
<stop stop-color="#27E5FF"/>
<stop offset="1" stop-color="#6A27FF"/>
</linearGradient>
<linearGradient id="paint1_linear_330_421" x1="7.5" y1="71.6666" x2="77.2894" y2="4.85421" gradientUnits="userSpaceOnUse">
<stop stop-color="#27E5FF"/>
<stop offset="1" stop-color="#6A27FF"/>
</linearGradient>
<linearGradient id="paint2_linear_330_421" x1="7.5" y1="71.6666" x2="77.2894" y2="4.85421" gradientUnits="userSpaceOnUse">
<stop stop-color="#27E5FF"/>
<stop offset="1" stop-color="#6A27FF"/>
</linearGradient>
</defs>
</svg>
