<svg width="80" height="80" viewBox="0 0 80 80" fill="none" xmlns="http://www.w3.org/2000/svg">
<path d="M63.3135 15.4747C61.2694 14.8303 58.9724 14.5175 56.3185 14.3537C53.2851 14.1666 49.5987 14.1666 45.0761 14.1666H34.8677C29.5231 14.1665 25.3332 14.1665 21.9859 14.4848C18.5741 14.8092 15.7804 15.4818 13.3176 16.991C10.7387 18.5714 8.57033 20.7397 6.98993 23.3187C6.93394 23.41 6.8791 23.5019 6.82539 23.5942C7.08304 18.7837 7.75599 15.5976 9.5137 13.0755C10.4335 11.7556 11.5469 10.5948 12.813 9.63587C16.7331 6.66656 22.3251 6.66656 33.5091 6.66656H51.4048C57.0289 6.66656 59.841 6.66656 61.5881 8.48806C62.93 9.88702 63.2413 11.9408 63.3135 15.4747Z" fill="url(#paint0_linear_330_420)"/>
<path d="M9.12122 24.6249C6.66522 28.6327 6.66522 34.0885 6.66522 44.9999C6.66522 55.9113 6.66522 61.3671 9.12122 65.3749C10.4955 67.6175 12.381 69.503 14.6236 70.8772C18.6314 73.3332 24.0871 73.3332 34.9986 73.3332H44.9986C55.91 73.3332 61.3657 73.3332 65.3735 70.8772C67.6161 69.503 69.5016 67.6175 70.8759 65.3749C72.4889 62.7427 73.0425 59.4861 73.2326 54.4697H52.1201C45.7186 54.4697 40.5292 49.2802 40.5292 42.8788C40.5292 36.4773 45.7186 31.2878 52.1201 31.2878H72.9242C72.5901 28.529 71.9821 26.4301 70.8759 24.6249C69.5016 22.3823 67.6161 20.4968 65.3735 19.1226C64.7351 18.7313 64.06 18.4024 63.3319 18.1259C59.4892 16.6666 54.1719 16.6666 44.9986 16.6666H34.9986C24.0871 16.6666 18.6314 16.6666 14.6236 19.1226C12.381 20.4968 10.4955 22.3823 9.12122 24.6249Z" fill="url(#paint1_linear_330_420)"/>
<path fill-rule="evenodd" clip-rule="evenodd" d="M73.2582 36.2878H52.1201C48.48 36.2878 45.5292 39.2387 45.5292 42.8788C45.5292 46.5188 48.48 49.4697 52.1201 49.4697H73.3241C73.3319 48.0891 73.3319 46.6034 73.3319 44.9999C73.3319 41.6091 73.3319 38.7452 73.2582 36.2878ZM52.1201 40.3787C50.7393 40.3787 49.6201 41.498 49.6201 42.8787C49.6201 44.2595 50.7393 45.3787 52.1201 45.3787H61.211C62.5917 45.3787 63.711 44.2595 63.711 42.8787C63.711 41.498 62.5917 40.3787 61.211 40.3787H52.1201Z" fill="url(#paint2_linear_330_420)"/>
<defs>
<linearGradient id="paint0_linear_330_420" x1="6.66522" y1="73.3332" x2="74.7524" y2="8.15041" gradientUnits="userSpaceOnUse">
<stop stop-color="#27E5FF"/>
<stop offset="1" stop-color="#6A27FF"/>
</linearGradient>
<linearGradient id="paint1_linear_330_420" x1="6.66522" y1="73.3332" x2="74.7524" y2="8.15041" gradientUnits="userSpaceOnUse">
<stop stop-color="#27E5FF"/>
<stop offset="1" stop-color="#6A27FF"/>
</linearGradient>
<linearGradient id="paint2_linear_330_420" x1="6.66522" y1="73.3332" x2="74.7524" y2="8.15041" gradientUnits="userSpaceOnUse">
<stop stop-color="#27E5FF"/>
<stop offset="1" stop-color="#6A27FF"/>
</linearGradient>
</defs>
</svg>
